<mxfile host="app.diagrams.net" agent="Mozilla/5.0 (Windows NT 10.0; Win64; x64) AppleWebKit/537.36 (KHTML, like Gecko) Chrome/134.0.0.0 Safari/537.36" version="26.1.1">
  <diagram name="PÃ¡gina-1" id="UwVN-nK65iExCXf8n9-s">
    <mxGraphModel dx="1434" dy="738" grid="1" gridSize="10" guides="1" tooltips="1" connect="1" arrows="1" fold="1" page="1" pageScale="1" pageWidth="720" pageHeight="827" math="0" shadow="0">
      <root>
        <mxCell id="0" />
        <mxCell id="1" parent="0" />
        <mxCell id="GkCsFmHKvnaNk-gIH9po-1" value="Usuario" style="swimlane;fontStyle=1;align=center;verticalAlign=top;childLayout=stackLayout;horizontal=1;startSize=26;horizontalStack=0;resizeParent=1;resizeParentMax=0;resizeLast=0;collapsible=1;marginBottom=0;whiteSpace=wrap;html=1;" parent="1" vertex="1">
          <mxGeometry x="80" y="520" width="160" height="98" as="geometry" />
        </mxCell>
        <mxCell id="GkCsFmHKvnaNk-gIH9po-2" value="- id: int&lt;div&gt;- nome: String&lt;/div&gt;&lt;div&gt;- email: String&lt;/div&gt;&lt;div&gt;- senha: String&lt;/div&gt;" style="text;strokeColor=none;fillColor=none;align=left;verticalAlign=top;spacingLeft=4;spacingRight=4;overflow=hidden;rotatable=0;points=[[0,0.5],[1,0.5]];portConstraint=eastwest;whiteSpace=wrap;html=1;" parent="GkCsFmHKvnaNk-gIH9po-1" vertex="1">
          <mxGeometry y="26" width="160" height="64" as="geometry" />
        </mxCell>
        <mxCell id="GkCsFmHKvnaNk-gIH9po-3" value="" style="line;strokeWidth=1;fillColor=none;align=left;verticalAlign=middle;spacingTop=-1;spacingLeft=3;spacingRight=3;rotatable=0;labelPosition=right;points=[];portConstraint=eastwest;strokeColor=inherit;" parent="GkCsFmHKvnaNk-gIH9po-1" vertex="1">
          <mxGeometry y="90" width="160" height="8" as="geometry" />
        </mxCell>
        <mxCell id="GkCsFmHKvnaNk-gIH9po-5" value="ListaDeCompra" style="swimlane;fontStyle=1;align=center;verticalAlign=top;childLayout=stackLayout;horizontal=1;startSize=26;horizontalStack=0;resizeParent=1;resizeParentMax=0;resizeLast=0;collapsible=1;marginBottom=0;whiteSpace=wrap;html=1;" parent="1" vertex="1">
          <mxGeometry x="440" y="525" width="200" height="130" as="geometry" />
        </mxCell>
        <mxCell id="GkCsFmHKvnaNk-gIH9po-6" value="- id: int&lt;div&gt;- usuarioId: int&lt;/div&gt;&lt;div&gt;- itens: List&amp;lt;String&amp;gt;&lt;/div&gt;" style="text;strokeColor=none;fillColor=none;align=left;verticalAlign=top;spacingLeft=4;spacingRight=4;overflow=hidden;rotatable=0;points=[[0,0.5],[1,0.5]];portConstraint=eastwest;whiteSpace=wrap;html=1;" parent="GkCsFmHKvnaNk-gIH9po-5" vertex="1">
          <mxGeometry y="26" width="200" height="54" as="geometry" />
        </mxCell>
        <mxCell id="GkCsFmHKvnaNk-gIH9po-7" value="" style="line;strokeWidth=1;fillColor=none;align=left;verticalAlign=middle;spacingTop=-1;spacingLeft=3;spacingRight=3;rotatable=0;labelPosition=right;points=[];portConstraint=eastwest;strokeColor=inherit;" parent="GkCsFmHKvnaNk-gIH9po-5" vertex="1">
          <mxGeometry y="80" width="200" height="8" as="geometry" />
        </mxCell>
        <mxCell id="GkCsFmHKvnaNk-gIH9po-8" value="+ adicionarItem(String item): void&lt;div&gt;+ removerItem(int index): void&lt;/div&gt;" style="text;strokeColor=none;fillColor=none;align=left;verticalAlign=top;spacingLeft=4;spacingRight=4;overflow=hidden;rotatable=0;points=[[0,0.5],[1,0.5]];portConstraint=eastwest;whiteSpace=wrap;html=1;" parent="GkCsFmHKvnaNk-gIH9po-5" vertex="1">
          <mxGeometry y="88" width="200" height="42" as="geometry" />
        </mxCell>
        <mxCell id="GkCsFmHKvnaNk-gIH9po-10" value="pode ter" style="endArrow=none;html=1;endSize=12;startArrow=none;startSize=14;startFill=0;edgeStyle=orthogonalEdgeStyle;rounded=0;exitX=1;exitY=0.5;exitDx=0;exitDy=0;entryX=0;entryY=0.5;entryDx=0;entryDy=0;" parent="1" source="GkCsFmHKvnaNk-gIH9po-2" target="GkCsFmHKvnaNk-gIH9po-6" edge="1">
          <mxGeometry relative="1" as="geometry">
            <mxPoint x="270" y="620" as="sourcePoint" />
            <mxPoint x="340" y="569" as="targetPoint" />
          </mxGeometry>
        </mxCell>
        <mxCell id="GkCsFmHKvnaNk-gIH9po-11" value="1" style="edgeLabel;resizable=0;html=1;align=left;verticalAlign=top;" parent="GkCsFmHKvnaNk-gIH9po-10" connectable="0" vertex="1">
          <mxGeometry x="-1" relative="1" as="geometry">
            <mxPoint x="10" as="offset" />
          </mxGeometry>
        </mxCell>
        <mxCell id="GkCsFmHKvnaNk-gIH9po-12" value="0..n" style="edgeLabel;resizable=0;html=1;align=right;verticalAlign=top;" parent="GkCsFmHKvnaNk-gIH9po-10" connectable="0" vertex="1">
          <mxGeometry x="1" relative="1" as="geometry">
            <mxPoint x="-10" as="offset" />
          </mxGeometry>
        </mxCell>
        <mxCell id="GkCsFmHKvnaNk-gIH9po-13" value="RegistroDeOferta" style="swimlane;fontStyle=1;align=center;verticalAlign=top;childLayout=stackLayout;horizontal=1;startSize=26;horizontalStack=0;resizeParent=1;resizeParentMax=0;resizeLast=0;collapsible=1;marginBottom=0;whiteSpace=wrap;html=1;" parent="1" vertex="1">
          <mxGeometry x="440" y="290" width="200" height="200" as="geometry" />
        </mxCell>
        <mxCell id="GkCsFmHKvnaNk-gIH9po-14" value="- id: int&lt;div&gt;- usuarioId: int&lt;/div&gt;&lt;div&gt;- estabelecimentoId: int&lt;/div&gt;&lt;div&gt;- produto: String&lt;/div&gt;&lt;div&gt;- oferta: Double&lt;/div&gt;&lt;div&gt;- localizacao: String&lt;/div&gt;" style="text;strokeColor=none;fillColor=none;align=left;verticalAlign=top;spacingLeft=4;spacingRight=4;overflow=hidden;rotatable=0;points=[[0,0.5],[1,0.5]];portConstraint=eastwest;whiteSpace=wrap;html=1;" parent="GkCsFmHKvnaNk-gIH9po-13" vertex="1">
          <mxGeometry y="26" width="200" height="94" as="geometry" />
        </mxCell>
        <mxCell id="GkCsFmHKvnaNk-gIH9po-15" value="" style="line;strokeWidth=1;fillColor=none;align=left;verticalAlign=middle;spacingTop=-1;spacingLeft=3;spacingRight=3;rotatable=0;labelPosition=right;points=[];portConstraint=eastwest;strokeColor=inherit;" parent="GkCsFmHKvnaNk-gIH9po-13" vertex="1">
          <mxGeometry y="120" width="200" height="8" as="geometry" />
        </mxCell>
        <mxCell id="GkCsFmHKvnaNk-gIH9po-16" value="+ registrarOferta(int usuarioId,&amp;nbsp;&lt;span style=&quot;background-color: transparent; color: light-dark(rgb(0, 0, 0), rgb(255, 255, 255));&quot;&gt;int estabelecimentoId, String produto, Double oferta, String localizacao): void&lt;/span&gt;" style="text;strokeColor=none;fillColor=none;align=left;verticalAlign=top;spacingLeft=4;spacingRight=4;overflow=hidden;rotatable=0;points=[[0,0.5],[1,0.5]];portConstraint=eastwest;whiteSpace=wrap;html=1;" parent="GkCsFmHKvnaNk-gIH9po-13" vertex="1">
          <mxGeometry y="128" width="200" height="72" as="geometry" />
        </mxCell>
        <mxCell id="GkCsFmHKvnaNk-gIH9po-17" value="pode realizar" style="endArrow=none;html=1;endSize=12;startArrow=none;startSize=14;startFill=0;edgeStyle=orthogonalEdgeStyle;rounded=0;exitX=0.5;exitY=0;exitDx=0;exitDy=0;entryX=0;entryY=0.5;entryDx=0;entryDy=0;" parent="1" source="GkCsFmHKvnaNk-gIH9po-1" target="GkCsFmHKvnaNk-gIH9po-14" edge="1">
          <mxGeometry x="0.1689" relative="1" as="geometry">
            <mxPoint x="240" y="350" as="sourcePoint" />
            <mxPoint x="440" y="350" as="targetPoint" />
            <mxPoint as="offset" />
          </mxGeometry>
        </mxCell>
        <mxCell id="GkCsFmHKvnaNk-gIH9po-18" value="1" style="edgeLabel;resizable=0;html=1;align=left;verticalAlign=top;" parent="GkCsFmHKvnaNk-gIH9po-17" connectable="0" vertex="1">
          <mxGeometry x="-1" relative="1" as="geometry">
            <mxPoint x="-20" y="-30" as="offset" />
          </mxGeometry>
        </mxCell>
        <mxCell id="GkCsFmHKvnaNk-gIH9po-19" value="0..n" style="edgeLabel;resizable=0;html=1;align=right;verticalAlign=top;" parent="GkCsFmHKvnaNk-gIH9po-17" connectable="0" vertex="1">
          <mxGeometry x="1" relative="1" as="geometry">
            <mxPoint x="-10" as="offset" />
          </mxGeometry>
        </mxCell>
        <mxCell id="g4UmNYB-dJKoZEBY1lCp-1" value="Estabelecimento" style="swimlane;fontStyle=1;align=center;verticalAlign=top;childLayout=stackLayout;horizontal=1;startSize=26;horizontalStack=0;resizeParent=1;resizeParentMax=0;resizeLast=0;collapsible=1;marginBottom=0;whiteSpace=wrap;html=1;" parent="1" vertex="1">
          <mxGeometry x="80" y="180" width="160" height="68" as="geometry" />
        </mxCell>
        <mxCell id="g4UmNYB-dJKoZEBY1lCp-2" value="- id: int&lt;div&gt;- nome: String&lt;/div&gt;" style="text;strokeColor=none;fillColor=none;align=left;verticalAlign=top;spacingLeft=4;spacingRight=4;overflow=hidden;rotatable=0;points=[[0,0.5],[1,0.5]];portConstraint=eastwest;whiteSpace=wrap;html=1;" parent="g4UmNYB-dJKoZEBY1lCp-1" vertex="1">
          <mxGeometry y="26" width="160" height="34" as="geometry" />
        </mxCell>
        <mxCell id="g4UmNYB-dJKoZEBY1lCp-3" value="" style="line;strokeWidth=1;fillColor=none;align=left;verticalAlign=middle;spacingTop=-1;spacingLeft=3;spacingRight=3;rotatable=0;labelPosition=right;points=[];portConstraint=eastwest;strokeColor=inherit;" parent="g4UmNYB-dJKoZEBY1lCp-1" vertex="1">
          <mxGeometry y="60" width="160" height="8" as="geometry" />
        </mxCell>
        <mxCell id="g4UmNYB-dJKoZEBY1lCp-6" value="pode pertencer" style="endArrow=none;html=1;endSize=12;startArrow=none;startSize=14;startFill=0;edgeStyle=orthogonalEdgeStyle;rounded=0;exitX=1;exitY=0.5;exitDx=0;exitDy=0;entryX=0.5;entryY=0;entryDx=0;entryDy=0;" parent="1" source="g4UmNYB-dJKoZEBY1lCp-2" target="GkCsFmHKvnaNk-gIH9po-13" edge="1">
          <mxGeometry x="-0.265" y="-1" relative="1" as="geometry">
            <mxPoint x="290" y="140" as="sourcePoint" />
            <mxPoint x="490" y="140" as="targetPoint" />
            <mxPoint as="offset" />
          </mxGeometry>
        </mxCell>
        <mxCell id="g4UmNYB-dJKoZEBY1lCp-7" value="1" style="edgeLabel;resizable=0;html=1;align=left;verticalAlign=top;" parent="g4UmNYB-dJKoZEBY1lCp-6" connectable="0" vertex="1">
          <mxGeometry x="-1" relative="1" as="geometry">
            <mxPoint x="10" as="offset" />
          </mxGeometry>
        </mxCell>
        <mxCell id="g4UmNYB-dJKoZEBY1lCp-8" value="0..n" style="edgeLabel;resizable=0;html=1;align=right;verticalAlign=top;" parent="g4UmNYB-dJKoZEBY1lCp-6" connectable="0" vertex="1">
          <mxGeometry x="1" relative="1" as="geometry">
            <mxPoint x="-10" y="-30" as="offset" />
          </mxGeometry>
        </mxCell>
      </root>
    </mxGraphModel>
  </diagram>
</mxfile>
